<svg width="22" height="20" viewBox="0 0 22 20" fill="none" xmlns="http://www.w3.org/2000/svg">
<rect x="4.46558" y="4.41113" width="15.0517" height="12.9756" fill="url(#paint0_linear_11_1100)"/>
<path d="M3.94649 1.29688H20.0362L21.0743 4.67053H2.90845L3.94649 1.29688Z" fill="url(#paint1_linear_11_1100)"/>
<rect width="2.0761" height="2.0761" transform="matrix(1 0 0 -1 16.6626 2.07617)" fill="url(#paint2_linear_11_1100)"/>
<rect x="6.02271" y="6.22656" width="2.59512" height="2.59512" rx="0.5" fill="#FFFAF5"/>
<rect x="6.02271" y="11.418" width="2.59512" height="2.59512" rx="0.5" fill="#FFFAF5"/>
<rect x="10.6938" y="6.22656" width="2.59512" height="2.59512" rx="0.5" fill="#FFFAF5"/>
<rect x="10.6938" y="11.418" width="2.59512" height="2.59512" rx="0.5" fill="#FFFAF5"/>
<rect x="15.3652" y="6.22656" width="2.59512" height="2.59512" rx="0.5" fill="#FFFAF5"/>
<rect x="15.3652" y="11.418" width="2.59512" height="2.59512" rx="0.5" fill="#FFFAF5"/>
<path fill-rule="evenodd" clip-rule="evenodd" d="M4.4898 13.5909C6.56803 11.4546 11.7641 15.1929 4.4898 19.9998C-2.78448 15.1934 2.41157 11.4546 4.4898 13.5909Z" fill="url(#paint3_linear_11_1100)"/>
<defs>
<linearGradient id="paint0_linear_11_1100" x1="11.9914" y1="4.41113" x2="11.9914" y2="17.3867" gradientUnits="userSpaceOnUse">
<stop stop-color="#FFAD97"/>
<stop offset="1" stop-color="#FF5B2E"/>
</linearGradient>
<linearGradient id="paint1_linear_11_1100" x1="11.9914" y1="1.29687" x2="11.9914" y2="4.67053" gradientUnits="userSpaceOnUse">
<stop stop-color="#FFAD97"/>
<stop offset="1" stop-color="#FF5B2E"/>
</linearGradient>
<linearGradient id="paint2_linear_11_1100" x1="1.03805" y1="0" x2="1.03805" y2="2.0761" gradientUnits="userSpaceOnUse">
<stop stop-color="#FFAD97"/>
<stop offset="1" stop-color="#FF5B2E"/>
</linearGradient>
<linearGradient id="paint3_linear_11_1100" x1="4.4898" y1="12.9756" x2="4.4898" y2="19.9998" gradientUnits="userSpaceOnUse">
<stop stop-color="#FF9071"/>
<stop offset="1" stop-color="#FF5B2E"/>
</linearGradient>
</defs>
</svg>
